# xmcd
#
# Track frame offsets:
#       150
#       13071
#       25829
#       39473
#       60447
#       74340
#       86966
#       98516
#       109988
#       126535
#       139421
#
# Disc length: 2031 seconds
#
# Revision: 0
# Processed by: cddbd v1.5.2PL0 Copyright (c) Steve Scherf et al.
# Submitted via: WaveLab 4.01
#
DISCID=9b07ed0b
DTITLE=Cumberland Gap Connection - Empty House
DYEAR=2005
DGENRE=Bluegrass
TTITLE0=Walking Out
TTITLE1=Empty House
TTITLE2=Late Snowfall
TTITLE3=No Other Way
TTITLE4=Granny's Matches
TTITLE5=This Old Fool
TTITLE6=I Threw Down My Bottle
TTITLE7=Colder Love
TTITLE8=Muddy Water
TTITLE9=Brush Creek
TTITLE10=Why Am I Crying
EXTD=
EXTT0=
EXTT1=
EXTT2=
EXTT3=
EXTT4=
EXTT5=
EXTT6=
EXTT7=
EXTT8=
EXTT9=
EXTT10=
PLAYORDER=
